<?xml version="1.0" encoding="utf-8"?>
<svg xmlns="http://www.w3.org/2000/svg" viewBox="2.0484 4.6621 19.9713 14.6919" width="256px" height="188.326568625978px"><g id="object-0" transform="matrix(1, 0, 0, 1, 0, 4.440892098500626e-16)"><path fill-rule="evenodd" clip-rule="evenodd" d="M13.0872 10.8576C12.5048 9.84888 11.2149 9.50325 10.2061 10.0857C9.19733 10.6681 8.8517 11.958 9.43411 12.9667C10.0165 13.9755 11.3064 14.3211 12.3152 13.7387C13.324 13.1563 13.6696 11.8664 13.0872 10.8576ZM9.45609 8.78662C11.1823 7.78999 13.3896 8.38144 14.3862 10.1076C15.3828 11.8339 14.7914 14.0411 13.0652 15.0378C11.339 16.0344 9.1317 15.443 8.13507 13.7167C7.13844 11.9905 7.72989 9.78325 9.45609 8.78662Z" style="fill: rgb(56, 135, 190);"/><path fill-rule="evenodd" clip-rule="evenodd" d="M20.3693 9.72549C20.0602 9.19014 19.3757 9.00672 18.8403 9.3158C18.305 9.62488 18.1216 10.3094 18.4306 10.8448C18.7397 11.3801 19.4243 11.5636 19.9596 11.2545C20.495 10.9454 20.6784 10.2608 20.3693 9.72549ZM18.0903 8.01676C19.3431 7.29346 20.945 7.7227 21.6683 8.97549C22.3916 10.2283 21.9624 11.8302 20.7096 12.5535C19.4568 13.2768 17.8549 12.8476 17.1316 11.5948C16.4083 10.342 16.8375 8.74006 18.0903 8.01676Z" style="fill: rgb(82, 211, 216);"/><path fill-rule="evenodd" clip-rule="evenodd" d="M14.6263 6.16535C12.8701 6.11477 10.7424 6.65651 8.68641 7.84356C6.63039 9.0306 5.0974 10.6023 4.26311 12.1485C3.42214 13.7071 3.34142 15.1219 3.93043 16.1421C4.51944 17.1622 5.78502 17.7997 7.55526 17.8507C9.31144 17.9013 11.4391 17.3595 13.4951 16.1725C14.1402 15.8001 14.7354 15.3887 15.2744 14.951C15.5959 14.6899 16.0683 14.7389 16.3294 15.0604C16.5905 15.3819 16.5416 15.8543 16.22 16.1154C15.6188 16.6037 14.9581 17.0599 14.2451 17.4715C11.9879 18.7748 9.58843 19.4099 7.51207 19.3501C5.44976 19.2907 3.57737 18.5305 2.63139 16.8921C1.6854 15.2536 1.9633 13.2519 2.94302 11.4362C3.92941 9.60816 5.67917 7.84774 7.93641 6.54452C10.1937 5.2413 12.5931 4.60617 14.6695 4.66597C16.7318 4.72536 18.6042 5.48551 19.5501 7.124C19.8217 7.59429 19.9942 8.10109 20.0761 8.62809L18.594 8.8586C18.539 8.50519 18.4254 8.17589 18.2511 7.874C17.6621 6.8538 16.3965 6.21633 14.6263 6.16535Z" style="fill: rgb(82, 211, 216);"/></g></svg>